<?xml version="1.0" standalone="no"?>
<!DOCTYPE svg PUBLIC "-//W3C//DTD SVG 20010904//EN"
 "http://www.w3.org/TR/2001/REC-SVG-20010904/DTD/svg10.dtd">
<svg version="1.0" xmlns="http://www.w3.org/2000/svg"
 width="300.000000pt" height="150.000000pt" viewBox="0 0 300.000000 150.000000"
 preserveAspectRatio="xMidYMid meet">
<metadata>
Created by potrace 1.10, written by Peter Selinger 2001-2011
</metadata>
<g transform="translate(0.000000,150.000000) scale(0.100000,-0.100000)"
fill="#000000" stroke="none">
<path d="M445 1192 c-55 -37 -100 -73 -99 -79 1 -7 2 -68 3 -135 l2 -123 105
-63 106 -62 56 34 56 34 39 -31 c30 -23 43 -28 55 -21 28 18 23 30 -19 54
l-42 23 27 20 c42 31 56 68 56 152 0 122 -14 141 -171 228 -36 20 -68 37 -70
36 -2 0 -49 -30 -104 -67z m179 -12 c98 -56 116 -85 116 -192 0 -88 -34 -134
-142 -192 l-35 -19 -92 53 -91 52 0 113 0 112 83 50 c45 28 88 52 95 52 7 1
37 -13 66 -29z"/>
<path d="M414 1047 c-3 -8 -4 -45 -2 -83 2 -53 6 -69 18 -69 12 0 16 17 18 83
2 69 0 82 -13 82 -9 0 -18 -6 -21 -13z"/>
<path d="M1280 998 l0 -228 41 0 40 0 -3 165 c-2 91 -1 165 2 165 3 0 31 -55
62 -123 l58 -122 36 0 37 0 56 122 c31 67 58 123 61 123 3 0 3 -74 1 -165 l-3
-165 41 0 41 0 0 228 0 228 -51 0 -52 0 -65 -133 -64 -133 -67 132 -66 132
-52 2 -53 1 0 -229z m83 180 c16 -13 52 -88 42 -88 -3 0 -15 6 -26 13 -17 10
-23 9 -38 -10 -10 -12 -21 -19 -25 -16 -11 11 -6 89 6 101 15 15 20 15 41 0z
m345 -5 c5 -10 8 -29 7 -43 -2 -14 -4 -31 -4 -39 -1 -11 -6 -10 -22 5 -17 15
-23 16 -40 6 -13 -8 -19 -9 -19 -1 0 24 45 89 61 89 5 0 12 -8 17 -17z m-182
-223 c13 0 24 5 24 12 0 6 3 9 6 5 9 -8 -27 -77 -40 -77 -14 0 -46 52 -46 75
0 15 1 15 16 1 8 -9 26 -16 40 -16z"/>
<path d="M1915 1013 c-44 -119 -81 -223 -83 -230 -3 -9 9 -13 42 -13 l45 0 17
55 18 55 98 0 c70 0 98 -3 98 -12 0 -7 7 -32 16 -55 16 -42 18 -43 60 -43 24
0 44 3 44 8 0 4 -37 106 -83 227 l-83 220 -54 3 -55 3 -80 -218z m163 165 c7
-7 12 -21 12 -32 0 -19 0 -19 -21 0 -17 15 -23 16 -40 6 -20 -12 -24 -6 -13
22 7 19 45 21 62 4z m6 -133 c20 -55 36 -100 36 -100 0 0 -31 0 -70 0 -38 0
-70 2 -70 4 0 7 65 199 67 197 1 0 18 -46 37 -101z m111 -177 c5 -28 4 -30 -5
-10 -5 12 -21 33 -35 45 -24 20 -25 25 -14 52 l12 30 18 -42 c11 -23 22 -57
24 -75z m-253 25 c-15 -17 -30 -32 -34 -32 -8 -1 4 42 23 82 l13 28 12 -23
c10 -19 9 -27 -14 -55z"/>
<path d="M2340 1225 c-1 0 -2 -102 -3 -228 l-2 -227 49 0 49 0 -7 85 -6 85 72
0 c122 0 184 48 182 141 -1 56 -23 93 -71 121 -26 16 -112 23 -263 23z m65
-65 c-22 -43 -20 -135 4 -159 19 -19 19 -20 0 -50 -11 -19 -19 -50 -19 -76 0
-25 -4 -45 -9 -45 -5 0 -10 76 -11 174 -1 160 1 175 17 179 33 8 34 7 18 -23z
m163 -23 c8 -9 15 -34 16 -57 1 -56 -19 -70 -101 -70 l-62 0 0 67 c1 37 3 71
5 74 7 13 127 0 142 -14z m67 -74 c-2 -10 -4 -23 -4 -29 -1 -7 -8 -15 -17 -18
-14 -5 -15 -4 -5 8 6 8 11 18 10 22 -1 5 0 27 1 49 2 38 2 38 10 13 5 -16 7
-36 5 -45z"/>
<path d="M890 971 c0 -135 1 -140 26 -170 22 -27 32 -31 75 -31 51 0 103 20
112 42 3 7 6 1 6 -14 1 -26 4 -28 41 -28 l40 0 0 170 0 170 -40 0 -40 0 0
-114 c0 -106 -1 -115 -25 -140 -27 -29 -60 -33 -93 -10 -21 14 -22 22 -22 140
l0 124 -40 0 -40 0 0 -139z m270 -123 c0 -21 -5 -28 -18 -28 -28 0 -31 8 -13
44 17 36 31 29 31 -16z"/>
<path d="M379 619 c-15 -15 -19 -30 -17 -61 4 -54 37 -80 89 -72 38 6 41 14
41 94 0 52 -74 78 -113 39z m73 -16 c26 -23 24 -73 -2 -73 -11 0 -20 -7 -20
-15 0 -13 -4 -14 -20 -5 -28 15 -36 55 -16 85 19 29 33 31 58 8z"/>
<path d="M1282 563 c2 -46 7 -77 13 -75 6 1 9 27 9 57 -1 30 0 55 1 55 1 0 13
-27 25 -61 13 -33 26 -57 30 -52 4 4 17 33 28 63 l21 55 0 -62 c1 -35 5 -63
11 -63 6 0 10 33 10 80 0 63 -3 80 -14 80 -8 0 -18 -10 -22 -22 -3 -12 -13
-37 -21 -56 l-15 -36 -21 55 c-14 33 -29 55 -40 57 -16 3 -18 -4 -15 -75z"/>
<path d="M1990 559 c0 -51 4 -78 10 -74 6 3 10 40 10 81 0 43 -4 74 -10 74 -6
0 -10 -34 -10 -81z"/>
<path d="M2480 614 c0 -20 -4 -25 -16 -20 -27 10 -64 -21 -64 -54 0 -41 23
-60 68 -56 20 2 36 6 35 10 -2 3 -3 38 -3 76 0 40 -4 70 -10 70 -5 0 -10 -12
-10 -26z m-2 -68 c5 -43 -29 -61 -48 -26 -8 14 -8 26 0 41 16 29 44 20 48 -15z"/>
<path d="M865 620 c-3 -5 -3 -10 2 -10 4 0 1 -5 -7 -11 -11 -8 -12 -12 -2 -16
7 -3 12 -23 12 -49 0 -37 3 -44 20 -44 11 0 20 5 20 10 0 6 -4 10 -10 10 -15
0 -12 67 3 74 10 5 10 7 0 12 -7 3 -13 12 -13 20 0 16 -16 19 -25 4z"/>
<path d="M1580 616 c0 -8 -6 -17 -12 -20 -10 -5 -10 -7 0 -12 7 -3 12 -24 12
-50 0 -40 2 -44 25 -44 14 0 25 5 25 10 0 6 -7 10 -15 10 -10 0 -15 11 -15 35
0 24 5 35 15 35 8 0 15 5 15 10 0 6 -7 10 -15 10 -8 0 -15 7 -15 15 0 8 -4 15
-10 15 -5 0 -10 -6 -10 -14z"/>
<path d="M520 551 c0 -54 12 -69 54 -66 27 2 28 4 30 55 1 70 -22 82 -26 13
-2 -35 -7 -48 -18 -48 -11 0 -16 13 -18 48 -4 62 -22 61 -22 -2z"/>
<path d="M640 585 c-16 -19 -5 -34 12 -17 16 16 38 15 38 -2 0 -7 -14 -16 -31
-20 -26 -5 -30 -10 -27 -33 2 -23 7 -28 28 -25 14 1 32 3 41 3 13 0 15 9 11
47 -3 26 -10 50 -16 54 -18 12 -43 9 -56 -7z m47 -70 c-4 -8 -13 -15 -22 -15
-21 0 -19 28 3 32 22 5 26 2 19 -17z"/>
<path d="M775 590 c-3 -5 -12 -7 -20 -3 -12 4 -15 -6 -15 -51 0 -31 5 -56 10
-56 6 0 10 17 10 39 0 39 20 68 40 56 5 -3 10 -26 10 -51 0 -24 5 -44 10 -44
14 0 12 94 -2 108 -14 14 -35 16 -43 2z"/>
<path d="M937 594 c-12 -13 -7 -80 7 -100 12 -16 18 -17 34 -7 14 9 22 9 31 0
8 -8 11 5 11 51 0 73 -17 84 -22 15 -2 -35 -7 -48 -18 -48 -10 0 -16 13 -18
40 -3 41 -13 60 -25 49z"/>
<path d="M1085 590 c-3 -5 -12 -7 -20 -3 -12 4 -15 -6 -15 -51 0 -31 5 -56 10
-56 6 0 10 17 10 39 0 22 6 44 15 51 17 14 23 5 27 -50 4 -43 23 -37 24 8 2
70 44 67 44 -4 0 -24 5 -44 10 -44 6 0 10 24 10 54 0 58 -15 75 -50 56 -13 -7
-21 -7 -25 0 -8 13 -32 13 -40 0z"/>
<path d="M1470 585 c-16 -19 -5 -34 12 -17 16 16 38 15 38 -2 0 -7 -14 -16
-31 -20 -26 -5 -30 -10 -27 -33 2 -23 7 -28 28 -25 14 1 32 3 41 3 13 0 15 9
11 47 -3 26 -10 50 -16 54 -18 12 -43 9 -56 -7z m47 -70 c-4 -8 -13 -15 -22
-15 -21 0 -19 28 3 32 22 5 26 2 19 -17z"/>
<path d="M1656 584 c-41 -41 4 -121 53 -94 12 6 21 15 21 20 0 13 -13 13 -28
-2 -8 -8 -15 -8 -27 2 -25 21 -17 32 19 29 45 -4 53 4 32 36 -19 28 -47 32
-70 9z m52 -21 c2 -8 -6 -13 -22 -13 -25 0 -33 10 -19 24 10 10 36 3 41 -11z"/>
<path d="M1795 591 c-3 -6 -12 -8 -20 -4 -12 4 -15 -6 -15 -51 0 -31 5 -56 10
-56 6 0 10 18 10 41 0 32 4 42 20 46 11 3 20 9 20 14 0 13 -18 20 -25 10z"/>
<path d="M1837 593 c-11 -10 -8 -113 3 -113 6 0 10 27 10 60 0 61 -1 65 -13
53z"/>
<path d="M1887 589 c-9 -6 -15 -14 -12 -19 4 -6 14 -5 25 2 15 10 22 10 31 1
9 -9 3 -15 -25 -27 -39 -16 -46 -36 -20 -57 12 -10 20 -10 34 -1 11 6 26 9 34
6 12 -4 13 3 9 38 -9 65 -32 83 -76 57z m53 -58 c0 -15 -29 -33 -41 -25 -9 5
-7 11 6 21 22 15 35 17 35 4z"/>
<path d="M2039 584 c-16 -20 -1 -48 30 -52 11 -2 21 -10 21 -18 0 -17 -37 -19
-43 -1 -2 6 -8 9 -13 4 -15 -14 23 -40 49 -33 46 11 42 61 -5 68 -29 4 -36 28
-9 28 12 0 21 -4 21 -10 0 -5 5 -10 10 -10 16 0 11 27 -6 34 -25 10 -41 7 -55
-10z"/>
<path d="M2193 593 c-7 -2 -13 -12 -13 -21 0 -12 3 -13 12 -4 16 16 48 15 48
-2 0 -7 -13 -16 -29 -19 -35 -7 -48 -35 -26 -56 12 -13 19 -13 35 -3 10 6 26
9 33 6 12 -4 14 4 9 43 -6 59 -25 74 -69 56z m44 -78 c-4 -8 -13 -15 -22 -15
-21 0 -19 28 3 32 22 5 26 2 19 -17z"/>
<path d="M2331 591 c-8 -5 -20 -7 -28 -4 -10 4 -13 -7 -13 -45 0 -28 5 -54 10
-57 6 -4 10 9 10 33 0 40 20 69 40 57 5 -3 10 -26 10 -51 0 -24 5 -44 10 -44
14 0 12 94 -2 108 -14 14 -18 15 -37 3z"/>
<path d="M395 388 c-2 -7 -13 -38 -24 -68 -14 -37 -17 -58 -11 -64 7 -7 13 -3
16 12 8 30 69 32 79 2 7 -22 25 -28 24 -7 0 6 -10 39 -23 72 -22 58 -50 83
-61 53z m45 -70 c0 -5 -11 -8 -24 -8 -24 0 -24 2 -14 31 l11 32 13 -24 c7 -13
13 -27 14 -31z"/>
<path d="M604 385 c-4 -11 -12 -23 -18 -27 -7 -5 -7 -8 2 -8 7 0 12 -15 12
-39 0 -39 20 -68 40 -56 15 9 12 25 -5 25 -10 0 -15 10 -15 30 0 20 5 30 15
30 8 0 15 7 15 16 0 8 -5 12 -10 9 -6 -3 -14 4 -19 17 -9 22 -9 22 -17 3z"/>
<path d="M1174 389 c-4 -7 -6 -35 -5 -63 2 -51 20 -84 40 -72 16 10 13 26 -5
26 -11 0 -14 8 -12 33 2 19 8 31 16 30 6 -2 12 4 12 12 0 8 -5 14 -12 13 -7
-2 -12 2 -13 9 0 18 -12 25 -21 12z"/>
<path d="M1400 325 c0 -43 4 -75 10 -75 6 0 10 32 10 75 0 43 -4 75 -10 75 -6
0 -10 -32 -10 -75z"/>
<path d="M1612 328 c2 -46 7 -73 16 -76 8 -2 12 7 12 27 0 27 3 31 28 31 33 0
52 16 52 45 0 32 -20 45 -67 45 l-44 0 3 -72z m81 40 c7 -23 -4 -38 -29 -38
-19 0 -24 5 -24 25 0 20 5 25 24 25 13 0 26 -6 29 -12z"/>
<path d="M1740 335 c0 -36 0 -68 -1 -72 0 -4 4 -9 10 -11 7 -2 11 12 11 36 0
42 22 73 36 51 4 -6 7 -28 8 -47 2 -54 26 -54 26 0 0 56 -11 72 -44 66 -22 -4
-26 -2 -26 18 0 13 -4 24 -10 24 -6 0 -10 -28 -10 -65z"/>
<path d="M504 356 c-15 -12 -17 -18 -8 -33 6 -10 21 -20 33 -23 12 -3 22 -9
22 -15 0 -16 -33 -19 -42 -4 -4 7 -11 10 -15 6 -4 -4 0 -15 9 -24 13 -13 23
-15 44 -7 42 14 41 42 -2 59 -20 9 -33 20 -30 25 9 14 33 12 38 -2 2 -7 8 -10
12 -6 10 9 -13 38 -29 38 -7 0 -21 -6 -32 -14z"/>
<path d="M711 361 c-8 -5 -20 -7 -28 -4 -10 4 -13 -8 -13 -51 0 -31 5 -56 10
-56 6 0 10 13 10 29 0 39 9 61 26 61 8 0 14 7 14 15 0 17 0 18 -19 6z"/>
<path d="M755 354 c-10 -11 -15 -29 -13 -53 2 -29 8 -38 30 -45 56 -20 95 64
46 98 -28 20 -43 20 -63 0z m59 -27 c14 -22 -4 -52 -30 -52 -14 0 -20 8 -22
29 -5 44 29 59 52 23z"/>
<path d="M901 361 c-8 -5 -20 -7 -28 -4 -10 4 -13 -11 -13 -71 0 -44 4 -76 10
-76 6 0 10 11 10 24 0 19 4 22 23 19 32 -6 57 21 57 62 0 24 -6 38 -19 45 -23
12 -22 12 -40 1z m29 -26 c15 -18 5 -65 -13 -65 -32 0 -48 45 -25 68 16 16 23
15 38 -3z"/>
<path d="M990 355 c-16 -19 -5 -34 12 -17 17 17 38 15 38 -3 0 -8 -6 -15 -14
-15 -8 0 -24 -9 -37 -19 -23 -19 -23 -21 -7 -37 14 -14 22 -15 41 -7 18 8 28
8 36 0 7 -7 9 4 4 44 -3 30 -11 57 -17 61 -18 12 -43 9 -56 -7z m50 -60 c0
-20 -28 -31 -42 -17 -10 10 8 23 40 31 1 1 2 -6 2 -14z"/>
<path d="M1304 345 c-19 -19 -23 -31 -18 -48 9 -31 24 -47 43 -47 22 0 58 26
49 36 -4 4 -14 1 -23 -6 -22 -19 -45 -5 -45 29 0 31 18 45 41 30 8 -5 18 -9
22 -9 13 0 -2 19 -24 30 -15 9 -24 6 -45 -15z"/>
<path d="M1460 350 c-25 -25 -26 -62 -2 -83 22 -20 43 -22 60 -5 19 19 14 29
-8 16 -16 -11 -23 -10 -37 5 -16 16 -15 17 25 17 34 0 42 3 42 18 0 21 -29 52
-48 52 -7 0 -21 -9 -32 -20z m48 -18 c2 -7 -7 -12 -23 -12 -24 0 -26 2 -15 15
14 17 31 16 38 -3z"/>
<path d="M1840 366 c0 -2 9 -25 20 -51 26 -60 25 -74 -2 -84 -21 -8 -21 -10
-5 -16 25 -10 40 8 65 81 25 69 26 74 12 74 -5 0 -15 -19 -22 -41 l-12 -42
-18 42 c-9 22 -22 41 -28 41 -5 0 -10 -2 -10 -4z"/>
<path d="M1965 356 c-23 -17 -14 -43 20 -56 14 -5 25 -14 25 -20 0 -14 -37
-12 -43 3 -2 6 -8 9 -12 5 -11 -11 14 -38 36 -38 19 0 49 25 49 41 0 6 -16 17
-35 25 -20 8 -33 19 -30 24 8 13 35 13 35 0 0 -5 5 -10 10 -10 16 0 11 27 -6
34 -22 9 -28 8 -49 -8z"/>
<path d="M2124 360 c-45 -17 -33 -110 14 -110 23 0 59 26 50 36 -4 4 -14 1
-23 -6 -22 -19 -45 -5 -45 29 0 29 24 49 35 31 8 -13 25 -13 25 0 0 16 -34 28
-56 20z"/>
<path d="M2214 356 c-15 -12 -17 -18 -8 -33 6 -10 21 -20 34 -23 13 -3 25 -11
28 -18 5 -15 -30 -16 -46 0 -17 17 -28 2 -12 -17 16 -19 54 -19 70 0 14 17 7
43 -15 50 -49 16 -49 15 -36 28 9 9 16 9 32 -1 27 -17 40 -5 15 14 -25 18 -37
18 -62 0z"/>
<path d="M1090 303 c0 -29 5 -53 10 -53 6 0 10 18 10 41 0 32 4 42 20 46 30 8
24 22 -10 21 -29 -1 -30 -2 -30 -55z"/>
<path d="M1240 304 c0 -40 4 -54 12 -52 18 6 19 108 1 108 -9 0 -13 -16 -13
-56z"/>
<path d="M2050 304 c0 -72 22 -69 24 4 1 36 -3 52 -11 52 -9 0 -13 -18 -13
-56z"/>
</g>
</svg>
